<svg xmlns="http://www.w3.org/2000/svg" width="24.192" height="24.211" viewBox="0 0 24.192 24.211">
  <g id="clapperboard" transform="translate(-0.194 0)">
    <g id="Group_2" data-name="Group 2" transform="translate(1.176 9.073)">
      <g id="Group_1" data-name="Group 1">
        <path id="Path_1" data-name="Path 1" d="M43.645,191.81h-22.2a.5.5,0,0,0-.5.5v12.11a2.526,2.526,0,0,0,2.523,2.523H41.627a2.526,2.526,0,0,0,2.523-2.523v-12.11A.5.5,0,0,0,43.645,191.81Zm-.5,12.614a1.516,1.516,0,0,1-1.514,1.514H23.462a1.516,1.516,0,0,1-1.514-1.514V192.819H43.14Z" transform="translate(-20.939 -191.81)" fill="#fff"/>
      </g>
    </g>
    <g id="Group_4" data-name="Group 4" transform="translate(0.194 0)">
      <g id="Group_3" data-name="Group 3" transform="translate(0)">
        <path id="Path_2" data-name="Path 2" d="M24.37,4.4l-.859-3.259A1.524,1.524,0,0,0,21.7.037L1.372,4.861A1.512,1.512,0,0,0,.241,6.7l.951,3.758a.5.5,0,0,0,.488.38.5.5,0,0,0,.125-.015.5.5,0,0,0,.364-.613L2.114,10,23.994,5.026A.506.506,0,0,0,24.37,4.4ZM1.867,9.018,1.219,6.46A.505.505,0,0,1,1.6,5.843L21.931,1.02a.455.455,0,0,1,.11-.013.51.51,0,0,1,.492.389l.728,2.76Z" transform="translate(-0.194 0)" fill="#fff"/>
      </g>
    </g>
    <g id="Group_6" data-name="Group 6" transform="translate(3.193 9.074)">
      <g id="Group_5" data-name="Group 5">
        <path id="Path_3" data-name="Path 3" d="M66.342,191.868a.509.509,0,0,0-.678.226l-2.018,4.037a.505.505,0,0,0,.9.451l2.018-4.037A.506.506,0,0,0,66.342,191.868Z" transform="translate(-63.593 -191.816)" fill="#fff"/>
      </g>
    </g>
    <g id="Group_8" data-name="Group 8" transform="translate(8.239 9.074)">
      <g id="Group_7" data-name="Group 7">
        <path id="Path_4" data-name="Path 4" d="M173.008,191.868a.507.507,0,0,0-.677.226l-2.018,4.037a.5.5,0,1,0,.9.451l2.018-4.037A.506.506,0,0,0,173.008,191.868Z" transform="translate(-170.26 -191.816)" fill="#fff"/>
      </g>
    </g>
    <g id="Group_10" data-name="Group 10" transform="translate(13.285 9.074)">
      <g id="Group_9" data-name="Group 9">
        <path id="Path_5" data-name="Path 5" d="M279.674,191.868a.508.508,0,0,0-.677.226l-2.018,4.037a.5.5,0,1,0,.9.451l2.018-4.037A.506.506,0,0,0,279.674,191.868Z" transform="translate(-276.926 -191.816)" fill="#fff"/>
      </g>
    </g>
    <g id="Group_12" data-name="Group 12" transform="translate(18.331 9.074)">
      <g id="Group_11" data-name="Group 11">
        <path id="Path_6" data-name="Path 6" d="M386.341,191.868a.507.507,0,0,0-.677.226l-2.018,4.037a.5.5,0,1,0,.9.451l2.018-4.037A.506.506,0,0,0,386.341,191.868Z" transform="translate(-383.593 -191.816)" fill="#fff"/>
      </g>
    </g>
    <g id="Group_14" data-name="Group 14" transform="translate(1.176 13.11)">
      <g id="Group_13" data-name="Group 13">
        <path id="Path_7" data-name="Path 7" d="M43.645,277.143h-22.2a.5.5,0,0,0,0,1.009h22.2a.5.5,0,0,0,0-1.009Z" transform="translate(-20.939 -277.143)" fill="#fff"/>
      </g>
    </g>
    <g id="Group_16" data-name="Group 16" transform="translate(2.223 4.569)">
      <g id="Group_15" data-name="Group 15">
        <path id="Path_8" data-name="Path 8" d="M47.415,100.217l-3.476-3.476a.5.5,0,0,0-.713.713l3.476,3.477a.507.507,0,0,0,.357.147.5.5,0,0,0,.356-.148A.5.5,0,0,0,47.415,100.217Z" transform="translate(-43.078 -96.594)" fill="#fff"/>
      </g>
    </g>
    <g id="Group_18" data-name="Group 18" transform="translate(7.157 3.448)">
      <g id="Group_17" data-name="Group 17">
        <path id="Path_9" data-name="Path 9" d="M151.717,76.515l-3.479-3.476a.5.5,0,0,0-.714.713L151,77.229a.5.5,0,1,0,.714-.713Z" transform="translate(-147.377 -72.892)" fill="#fff"/>
      </g>
    </g>
    <g id="Group_20" data-name="Group 20" transform="translate(12.096 2.326)">
      <g id="Group_19" data-name="Group 19">
        <path id="Path_10" data-name="Path 10" d="M256.116,52.794l-3.472-3.477a.5.5,0,0,0-.713.713l3.473,3.477a.507.507,0,0,0,.357.147.5.5,0,0,0,.356-.147A.5.5,0,0,0,256.116,52.794Z" transform="translate(-251.782 -49.17)" fill="#fff"/>
      </g>
    </g>
    <g id="Group_22" data-name="Group 22" transform="translate(17.025 1.206)">
      <g id="Group_21" data-name="Group 21">
        <path id="Path_11" data-name="Path 11" d="M360.33,29.114l-3.474-3.477a.5.5,0,0,0-.713.713l3.473,3.477a.5.5,0,0,0,.714-.713Z" transform="translate(-355.995 -25.49)" fill="#fff"/>
      </g>
    </g>
  </g>
</svg>
