<svg xmlns="http://www.w3.org/2000/svg" width="576" height="512" viewBox="0 0 576 512">
  <path id="exclamation-triangle-solid" d="M569.517,440.013C587.975,472.007,564.806,512,527.94,512H48.054c-36.937,0-60-40.055-41.577-71.987L246.423,23.985c18.467-32.009,64.72-31.951,83.154,0l239.94,416.028ZM288,354a46,46,0,1,0,46,46A46,46,0,0,0,288,354ZM244.327,188.654l7.418,136A12,12,0,0,0,263.727,336h48.546a12,12,0,0,0,11.982-11.346l7.418-136A12,12,0,0,0,319.691,176H256.308a12,12,0,0,0-11.981,12.654Z" transform="translate(0)" fill="#fff"/>
</svg>
